HIERARCHY
ROOT Hips
{
	OFFSET -0.001795 -0.223333 0.028219
	CHANNELS 6 Xposition Yposition Zposition Zrotation Yrotation Xrotation 
	JOINT LeftUpLeg
	{
		OFFSET 0.069520 -0.091406 -0.006815
		CHANNELS 3 Zrotation Yrotation Xrotation
		JOINT LeftLeg
		{
			OFFSET 0.034277 -0.375199 -0.004496
			CHANNELS 3 Zrotation Yrotation Xrotation
			JOINT LeftFoot
			{
				OFFSET -0.013596 -0.397961 -0.043693
				CHANNELS 3 Zrotation Yrotation Xrotation
				JOINT LeftToe
				{
					OFFSET 0.026358 -0.055791 0.119288
					CHANNELS 3 Zrotation Yrotation Xrotation
					End Site
					{
						OFFSET 0.000000 0.000000 0.000000
					}
				}
			}
		}
	}
	JOINT RightUpLeg
	{
		OFFSET -0.067670 -0.090522 -0.004320
		CHANNELS 3 Zrotation Yrotation Xrotation
		JOINT RightLeg
		{
			OFFSET -0.038290 -0.382569 -0.008850
			CHANNELS 3 Zrotation Yrotation Xrotation
			JOINT RightFoot
			{
				OFFSET 0.015774 -0.398415 -0.042312
				CHANNELS 3 Zrotation Yrotation Xrotation
				JOINT RightToe
				{
					OFFSET -0.025372 -0.048144 0.123348
					CHANNELS 3 Zrotation Yrotation Xrotation
					End Site
					{
						OFFSET 0.000000 0.000000 0.000000
					}
				}
			}
		}
	}
	JOINT Spine
	{
		OFFSET -0.002533 0.108963 -0.026696
		CHANNELS 3 Zrotation Yrotation Xrotation
		JOINT Spine1
		{
			OFFSET 0.005487 0.135180 0.001092
			CHANNELS 3 Zrotation Yrotation Xrotation
			JOINT Spine2
			{
				OFFSET 0.001457 0.052922 0.025425
				CHANNELS 3 Zrotation Yrotation Xrotation
				JOINT Neck
				{
					OFFSET -0.002778 0.213870 -0.042857
					CHANNELS 3 Zrotation Yrotation Xrotation
					JOINT Head
					{
						OFFSET 0.005152 0.064970 0.051349
						CHANNELS 3 Zrotation Yrotation Xrotation
						End Site
						{
							OFFSET 0.000000 0.000000 0.000000
						}
					}
				}
				JOINT LeftShoulder
				{
					OFFSET 0.078845 0.121749 -0.034090
					CHANNELS 3 Zrotation Yrotation Xrotation
					JOINT LeftArm
					{
						OFFSET 0.090977 0.030469 -0.008868
						CHANNELS 3 Zrotation Yrotation Xrotation
						JOINT LeftForeArm
						{
							OFFSET 0.259612 -0.012772 -0.027456
							CHANNELS 3 Zrotation Yrotation Xrotation
							JOINT LeftHand
							{
								OFFSET 0.249234 0.008986 -0.001171
								CHANNELS 3 Zrotation Yrotation Xrotation
								End Site
								{
									OFFSET 0.000000 0.000000 0.000000
								}
							}
						}
					}
				}
				JOINT RightShoulder
				{
					OFFSET -0.081759 0.118833 -0.038615
					CHANNELS 3 Zrotation Yrotation Xrotation
					JOINT RightArm
					{
						OFFSET -0.096012 0.032551 -0.009143
						CHANNELS 3 Zrotation Yrotation Xrotation
						JOINT RightForeArm
						{
							OFFSET -0.253742 -0.013329 -0.021401
							CHANNELS 3 Zrotation Yrotation Xrotation
							JOINT RightHand
							{
								OFFSET -0.255298 0.007772 -0.005559
								CHANNELS 3 Zrotation Yrotation Xrotation
								End Site
								{
									OFFSET 0.000000 0.000000 0.000000
								}
							}
						}
					}
				}
			}
		}
	}
}
MOTION
Frames: 8
Frame Time: 0.050000
0.000000 0.903943 0.000000 -0.870423 -0.404243 -1.995942 6.016669 -0.026570 0.273177 -7.545388 1.830227 28.562553 7.416642 15.152178 -1.403903 0.000000 0.000000 0.000000 -4.315136 1.386445 -20.559950 10.050216 -2.166378 22.200978 -12.182146 -30.096950 -4.941170 0.000000 0.000000 0.000000 6.129021 -2.141283 22.412223 -4.644099 1.757554 -23.283489 -3.536595 1.914411 27.483209 10.728633 -3.964807 -29.179091 0.000000 0.000000 0.000000 -18.283605 -9.977070 3.930625 -44.178525 -14.307998 -2.354065 -13.974087 -42.618291 7.547550 0.000000 0.000000 0.000000 25.796869 0.297391 -0.743837 51.024017 14.067412 -1.785171 7.050743 32.422561 3.685199 0.000000 0.000000 0.000000 
-0.004897 0.907715 0.024446 -0.935282 -2.133665 -2.138460 8.623613 -0.047388 -2.293169 -11.481800 4.211145 35.989206 6.838580 14.814499 5.273433 0.000000 0.000000 0.000000 -3.205338 1.557252 -19.675682 9.183408 -1.808466 23.725539 -11.655887 -28.888734 -6.584186 0.000000 0.000000 0.000000 7.838579 -2.469572 23.172264 -5.488027 1.934335 -23.734536 -2.679168 2.784565 26.377125 9.690048 -3.364689 -29.081679 0.000000 0.000000 0.000000 -19.408769 -9.914564 3.905991 -43.812696 -12.560136 -2.880036 -17.375739 -44.108889 9.250812 0.000000 0.000000 0.000000 24.746344 -1.448157 -1.849866 51.217191 12.578545 -2.272015 9.891218 32.631232 4.481204 0.000000 0.000000 0.000000 
-0.007100 0.909204 0.046657 -0.691474 -3.453931 -3.664318 10.650958 0.084481 -5.772860 -14.486999 6.884330 43.515308 7.750154 17.042343 16.200475 0.000000 0.000000 0.000000 -2.769818 1.344228 -16.134702 8.479112 -1.455280 23.161691 -11.110235 -27.480965 -8.536495 0.000000 0.000000 0.000000 9.256081 -2.739250 24.153952 -5.481457 1.913806 -24.437731 -3.217537 3.592892 27.062427 8.727292 -2.965295 -28.238265 0.000000 0.000000 0.000000 -21.142871 -8.818587 3.284900 -41.691001 -12.578120 -2.832344 -16.960112 -44.955599 9.196774 0.000000 0.000000 0.000000 23.990941 -2.136936 -2.127304 50.729248 11.743117 -2.722806 11.900539 33.466547 5.233336 0.000000 0.000000 0.000000 
-0.006463 0.912625 0.067215 -0.017913 -5.481639 -5.388408 11.624521 0.291771 -7.649287 -17.016152 9.175414 45.396870 10.759667 20.950808 24.589541 0.000000 0.000000 0.000000 -2.986448 1.031768 -12.522087 7.584767 -1.007110 22.385556 -10.433064 -25.160212 -9.930243 0.000000 0.000000 0.000000 9.324944 -2.740705 25.946561 -5.806253 1.996409 -23.932577 -3.328702 4.372450 26.639443 10.643750 -4.260434 -27.468914 0.000000 0.000000 0.000000 -20.993402 -9.033333 3.456688 -41.544747 -11.952957 -3.009474 -17.928008 -47.691833 10.300796 0.000000 0.000000 0.000000 24.904357 -2.477256 -2.499540 49.551376 12.193544 -2.483860 12.661767 34.876872 5.690280 0.000000 0.000000 0.000000 
-0.003381 0.916276 0.086497 0.643282 -7.175020 -6.752474 11.318777 0.403826 -10.163199 -16.803482 9.296173 44.154340 13.019391 23.484962 24.192286 0.000000 0.000000 0.000000 -3.521908 0.720499 -9.096853 6.688660 -0.633034 20.944237 -9.875864 -22.976523 -10.763580 0.000000 0.000000 0.000000 9.195849 -2.687941 27.643593 -5.467752 1.890171 -24.432199 -2.836080 4.535249 26.445645 9.995847 -4.268366 -25.891171 0.000000 0.000000 0.000000 -21.525228 -9.464296 3.905188 -41.180162 -11.268350 -3.269950 -19.335521 -50.666363 11.824188 0.000000 0.000000 0.000000 23.936479 -2.625942 -2.728338 49.430049 11.939151 -2.519556 13.802220 37.504322 6.502504 0.000000 0.000000 0.000000 
0.001706 0.920348 0.104917 0.849563 -8.466780 -6.892794 11.038957 0.468546 -12.504658 -15.617191 7.497388 36.545161 14.735511 26.620201 13.970236 0.000000 0.000000 0.000000 -3.954979 0.540271 -6.807801 6.059067 -0.423253 18.989202 -9.439964 -21.236218 -10.916563 0.000000 0.000000 0.000000 9.114997 -2.599817 28.141280 -5.061586 1.768078 -24.008299 -2.936928 4.771249 25.797189 9.343027 -3.997637 -25.375716 0.000000 0.000000 0.000000 -22.026142 -9.369250 3.972062 -41.356417 -11.468761 -3.210776 -19.348438 -52.691804 12.475297 0.000000 0.000000 0.000000 24.682924 -2.920246 -3.139734 48.610533 11.769799 -2.485300 13.316603 39.284446 6.626477 0.000000 0.000000 0.000000 
0.008389 0.922844 0.122928 1.230073 -9.394164 -6.892528 10.199796 0.387920 -12.875048 -14.560062 5.222289 24.847557 18.144087 30.930440 15.473793 0.000000 0.000000 0.000000 -4.698266 0.420247 -5.109711 5.394453 -0.244519 17.681391 -9.137004 -19.969975 -11.095779 0.000000 0.000000 0.000000 9.514529 -2.605224 28.152318 -5.755155 1.930206 -24.251425 -2.399434 4.465070 26.072534 8.726309 -3.882187 -24.617378 0.000000 0.000000 0.000000 -21.603743 -9.136186 4.104787 -41.657523 -11.897192 -3.197530 -20.567172 -55.337660 14.099892 0.000000 0.000000 0.000000 24.343085 -2.968011 -3.377553 48.488536 11.186079 -2.678704 14.143124 40.440623 7.072328 0.000000 0.000000 0.000000 
0.016342 0.922718 0.140758 1.144756 -10.452032 -6.319138 9.811218 0.358213 -12.976185 -14.982012 4.211706 16.267862 14.816129 27.085880 11.461862 0.000000 0.000000 0.000000 -4.925333 0.354736 -3.729201 4.523983 -0.062451 15.869195 -8.853627 -18.705974 -11.367163 0.000000 0.000000 0.000000 9.060849 -2.419227 27.883250 -5.240646 1.769320 -24.283348 -2.180344 5.215551 25.751758 8.545623 -3.820511 -23.902182 0.000000 0.000000 0.000000 -21.397653 -9.505301 4.268630 -41.167227 -13.254263 -2.709252 -20.392447 -56.532176 14.322751 0.000000 0.000000 0.000000 24.712290 -2.697714 -3.229715 47.256448 11.304948 -2.590980 15.225091 39.470884 7.225919 0.000000 0.000000 0.000000 
